<mxfile host="app.diagrams.net" modified="2023-02-15T15:48:49.670Z" agent="5.0 (X11; Ubuntu)" etag="1tMxshGbFNv3EIVau4RU" version="20.8.18" type="github" pages="3">
  <diagram id="9fB0GFrZQWABB-8gzhsE" name="From no creds">
    <mxGraphModel dx="3218" dy="1093" grid="1" gridSize="10" guides="1" tooltips="1" connect="1" arrows="1" fold="1" page="1" pageScale="1" pageWidth="1169" pageHeight="827" math="0" shadow="0">
      <root>
        <mxCell id="0" />
        <mxCell id="1" parent="0" />
        <mxCell id="q669wVBJVDhqwRxZ6Rot-2" value="" style="edgeStyle=none;rounded=0;orthogonalLoop=1;jettySize=auto;html=1;fontSize=14;exitX=1;exitY=0.5;exitDx=0;exitDy=0;entryX=0;entryY=0.5;entryDx=0;entryDy=0;" parent="1" source="OosuojFDGbZqmqcItjsv-1" target="q669wVBJVDhqwRxZ6Rot-1" edge="1">
          <mxGeometry relative="1" as="geometry" />
        </mxCell>
        <mxCell id="FLfiycKaQOmbqjivF0rp-5" style="edgeStyle=none;rounded=0;orthogonalLoop=1;jettySize=auto;html=1;exitX=1;exitY=0.5;exitDx=0;exitDy=0;entryX=0;entryY=0.5;entryDx=0;entryDy=0;fontSize=14;" parent="1" source="OosuojFDGbZqmqcItjsv-1" target="FLfiycKaQOmbqjivF0rp-3" edge="1">
          <mxGeometry relative="1" as="geometry" />
        </mxCell>
        <mxCell id="FLfiycKaQOmbqjivF0rp-9" style="edgeStyle=none;rounded=0;orthogonalLoop=1;jettySize=auto;html=1;exitX=1;exitY=0.5;exitDx=0;exitDy=0;entryX=0;entryY=0.5;entryDx=0;entryDy=0;fontSize=14;" parent="1" source="OosuojFDGbZqmqcItjsv-1" target="FLfiycKaQOmbqjivF0rp-6" edge="1">
          <mxGeometry relative="1" as="geometry" />
        </mxCell>
        <mxCell id="OosuojFDGbZqmqcItjsv-1" value="On est sur le rÃ©seau sans creds" style="rounded=1;whiteSpace=wrap;html=1;fontSize=14;fillColor=#a20025;strokeColor=#6F0000;fontColor=#ffffff;" parent="1" vertex="1">
          <mxGeometry x="-100" y="102.5" width="180" height="95" as="geometry" />
        </mxCell>
        <mxCell id="q669wVBJVDhqwRxZ6Rot-6" value="" style="edgeStyle=none;rounded=0;orthogonalLoop=1;jettySize=auto;html=1;fontSize=14;entryX=0;entryY=0.5;entryDx=0;entryDy=0;exitX=1;exitY=0.5;exitDx=0;exitDy=0;" parent="1" source="q669wVBJVDhqwRxZ6Rot-1" target="q669wVBJVDhqwRxZ6Rot-5" edge="1">
          <mxGeometry relative="1" as="geometry" />
        </mxCell>
        <mxCell id="3KcXfi7NhkpAm5ZNJReR-2" value="" style="edgeStyle=none;rounded=0;orthogonalLoop=1;jettySize=auto;html=1;fontSize=13;fontColor=#dc8add;" edge="1" parent="1" source="q669wVBJVDhqwRxZ6Rot-1" target="3KcXfi7NhkpAm5ZNJReR-1">
          <mxGeometry relative="1" as="geometry" />
        </mxCell>
        <mxCell id="q669wVBJVDhqwRxZ6Rot-1" value="Man in the middle" style="whiteSpace=wrap;html=1;rounded=1;fontSize=14;" parent="1" vertex="1">
          <mxGeometry x="210" y="440" width="120" height="60" as="geometry" />
        </mxCell>
        <mxCell id="FLfiycKaQOmbqjivF0rp-2" style="edgeStyle=none;rounded=0;orthogonalLoop=1;jettySize=auto;html=1;exitX=1;exitY=0.5;exitDx=0;exitDy=0;entryX=0;entryY=0.5;entryDx=0;entryDy=0;fontSize=14;" parent="1" source="q669wVBJVDhqwRxZ6Rot-3" target="y5aqqQjo2jUjklV6V6uS-5" edge="1">
          <mxGeometry relative="1" as="geometry">
            <mxPoint x="1010" y="220" as="targetPoint" />
          </mxGeometry>
        </mxCell>
        <mxCell id="q669wVBJVDhqwRxZ6Rot-3" value="&lt;div&gt;Password spray&lt;/div&gt;&lt;div&gt;&lt;br&gt;&lt;/div&gt;&lt;div&gt;&lt;font color=&quot;#dc8add&quot;&gt;bruteforce des users pour 1 mot de passe&lt;/font&gt;&lt;/div&gt;" style="whiteSpace=wrap;html=1;rounded=1;fontSize=14;" parent="1" vertex="1">
          <mxGeometry x="970" y="170" width="180" height="90" as="geometry" />
        </mxCell>
        <mxCell id="q669wVBJVDhqwRxZ6Rot-5" value="Relay" style="whiteSpace=wrap;html=1;rounded=1;fontSize=14;" parent="1" vertex="1">
          <mxGeometry x="370" y="570" width="120" height="60" as="geometry" />
        </mxCell>
        <mxCell id="y5aqqQjo2jUjklV6V6uS-7" style="edgeStyle=orthogonalEdgeStyle;rounded=0;orthogonalLoop=1;jettySize=auto;html=1;exitX=1;exitY=0.5;exitDx=0;exitDy=0;entryX=0.5;entryY=0;entryDx=0;entryDy=0;" edge="1" parent="1" source="FLfiycKaQOmbqjivF0rp-3" target="y5aqqQjo2jUjklV6V6uS-5">
          <mxGeometry relative="1" as="geometry" />
        </mxCell>
        <mxCell id="y5aqqQjo2jUjklV6V6uS-10" style="edgeStyle=orthogonalEdgeStyle;rounded=0;orthogonalLoop=1;jettySize=auto;html=1;exitX=1;exitY=0.5;exitDx=0;exitDy=0;fontColor=#ffa348;" edge="1" parent="1" source="FLfiycKaQOmbqjivF0rp-3" target="1S_cvOo1YeR9LOM_VgR6-3">
          <mxGeometry relative="1" as="geometry" />
        </mxCell>
        <mxCell id="FLfiycKaQOmbqjivF0rp-3" value="Find open smb share" style="rounded=1;whiteSpace=wrap;html=1;fontSize=14;" parent="1" vertex="1">
          <mxGeometry x="210" y="120" width="120" height="60" as="geometry" />
        </mxCell>
        <mxCell id="FLfiycKaQOmbqjivF0rp-8" value="" style="edgeStyle=none;rounded=0;orthogonalLoop=1;jettySize=auto;html=1;fontSize=14;" parent="1" source="FLfiycKaQOmbqjivF0rp-6" target="FLfiycKaQOmbqjivF0rp-7" edge="1">
          <mxGeometry relative="1" as="geometry" />
        </mxCell>
        <mxCell id="1S_cvOo1YeR9LOM_VgR6-2" style="edgeStyle=none;curved=1;rounded=0;orthogonalLoop=1;jettySize=auto;html=1;exitX=1;exitY=0.5;exitDx=0;exitDy=0;entryX=0;entryY=0.5;entryDx=0;entryDy=0;fontSize=14;fontColor=#F0F0F0;startSize=8;endSize=8;" parent="1" source="FLfiycKaQOmbqjivF0rp-6" target="1S_cvOo1YeR9LOM_VgR6-1" edge="1">
          <mxGeometry relative="1" as="geometry" />
        </mxCell>
        <mxCell id="FLfiycKaQOmbqjivF0rp-6" value="find users" style="rounded=1;whiteSpace=wrap;html=1;fontSize=14;" parent="1" vertex="1">
          <mxGeometry x="210" y="230" width="120" height="60" as="geometry" />
        </mxCell>
        <mxCell id="1S_cvOo1YeR9LOM_VgR6-4" value="" style="edgeStyle=none;curved=1;rounded=0;orthogonalLoop=1;jettySize=auto;html=1;fontSize=14;fontColor=#F0F0F0;startSize=8;endSize=8;" parent="1" source="FLfiycKaQOmbqjivF0rp-7" target="1S_cvOo1YeR9LOM_VgR6-3" edge="1">
          <mxGeometry relative="1" as="geometry" />
        </mxCell>
        <mxCell id="FLfiycKaQOmbqjivF0rp-7" value="enum4linux" style="whiteSpace=wrap;html=1;rounded=1;fontSize=14;" parent="1" vertex="1">
          <mxGeometry x="400" y="290" width="120" height="60" as="geometry" />
        </mxCell>
        <mxCell id="1S_cvOo1YeR9LOM_VgR6-5" style="edgeStyle=none;curved=1;rounded=0;orthogonalLoop=1;jettySize=auto;html=1;exitX=1;exitY=0.5;exitDx=0;exitDy=0;fontSize=14;fontColor=#F0F0F0;startSize=8;endSize=8;" parent="1" source="1S_cvOo1YeR9LOM_VgR6-1" target="1S_cvOo1YeR9LOM_VgR6-3" edge="1">
          <mxGeometry relative="1" as="geometry" />
        </mxCell>
        <mxCell id="1S_cvOo1YeR9LOM_VgR6-1" value="&lt;font style=&quot;font-size: 14px;&quot;&gt;Enum LDAP&lt;/font&gt;" style="rounded=1;whiteSpace=wrap;html=1;labelBackgroundColor=none;fontSize=14;fontColor=#F0F0F0;" parent="1" vertex="1">
          <mxGeometry x="400" y="200" width="120" height="60" as="geometry" />
        </mxCell>
        <mxCell id="1S_cvOo1YeR9LOM_VgR6-6" style="edgeStyle=none;curved=1;rounded=0;orthogonalLoop=1;jettySize=auto;html=1;exitX=1;exitY=0.5;exitDx=0;exitDy=0;entryX=0;entryY=0.5;entryDx=0;entryDy=0;fontSize=14;fontColor=#000000;startSize=8;endSize=8;" parent="1" source="1S_cvOo1YeR9LOM_VgR6-3" target="q669wVBJVDhqwRxZ6Rot-3" edge="1">
          <mxGeometry relative="1" as="geometry" />
        </mxCell>
        <mxCell id="y5aqqQjo2jUjklV6V6uS-11" value="&lt;font style=&quot;font-size: 13px;&quot;&gt;Get mdp&lt;/font&gt;" style="edgeLabel;html=1;align=center;verticalAlign=middle;resizable=0;points=[];fontColor=#ffa348;" vertex="1" connectable="0" parent="1S_cvOo1YeR9LOM_VgR6-6">
          <mxGeometry x="-0.2527" y="1" relative="1" as="geometry">
            <mxPoint as="offset" />
          </mxGeometry>
        </mxCell>
        <mxCell id="1S_cvOo1YeR9LOM_VgR6-9" value="&lt;font style=&quot;font-size: 13px;&quot; color=&quot;#ffa348&quot;&gt;Get Hash&lt;/font&gt;" style="rounded=0;orthogonalLoop=1;jettySize=auto;html=1;entryX=0;entryY=0.5;entryDx=0;entryDy=0;fontSize=14;fontColor=#000000;startSize=8;endSize=8;startArrow=none;exitX=1;exitY=0.5;exitDx=0;exitDy=0;" parent="1" source="y5aqqQjo2jUjklV6V6uS-16" target="y5aqqQjo2jUjklV6V6uS-1" edge="1">
          <mxGeometry relative="1" as="geometry">
            <mxPoint x="701" y="570" as="sourcePoint" />
            <mxPoint x="966" y="350" as="targetPoint" />
          </mxGeometry>
        </mxCell>
        <mxCell id="y5aqqQjo2jUjklV6V6uS-19" style="edgeStyle=none;rounded=0;orthogonalLoop=1;jettySize=auto;html=1;exitX=1;exitY=0.5;exitDx=0;exitDy=0;entryX=0;entryY=0.5;entryDx=0;entryDy=0;fontSize=13;fontColor=#ffffff;" edge="1" parent="1" source="1S_cvOo1YeR9LOM_VgR6-3" target="y5aqqQjo2jUjklV6V6uS-16">
          <mxGeometry relative="1" as="geometry" />
        </mxCell>
        <mxCell id="1S_cvOo1YeR9LOM_VgR6-3" value="Valid user(s) found" style="whiteSpace=wrap;html=1;rounded=1;fontSize=14;fillColor=#f0a30a;strokeColor=#BD7000;fontColor=#000000;" parent="1" vertex="1">
          <mxGeometry x="670" y="240" width="140" height="70" as="geometry" />
        </mxCell>
        <mxCell id="y5aqqQjo2jUjklV6V6uS-3" style="edgeStyle=none;curved=1;rounded=0;orthogonalLoop=1;jettySize=auto;html=1;exitX=1;exitY=0.5;exitDx=0;exitDy=0;entryX=0;entryY=0.5;entryDx=0;entryDy=0;fontSize=14;startSize=8;endSize=8;" edge="1" parent="1" source="y5aqqQjo2jUjklV6V6uS-1" target="y5aqqQjo2jUjklV6V6uS-13">
          <mxGeometry relative="1" as="geometry">
            <mxPoint x="1341" y="490" as="targetPoint" />
          </mxGeometry>
        </mxCell>
        <mxCell id="y5aqqQjo2jUjklV6V6uS-1" value="&lt;div&gt;Rubeus.py&lt;/div&gt;" style="rounded=1;whiteSpace=wrap;html=1;fontSize=14;" vertex="1" parent="1">
          <mxGeometry x="1271" y="330" width="120" height="60" as="geometry" />
        </mxCell>
        <mxCell id="y5aqqQjo2jUjklV6V6uS-4" style="edgeStyle=none;curved=1;rounded=0;orthogonalLoop=1;jettySize=auto;html=1;exitX=0.5;exitY=1;exitDx=0;exitDy=0;fontSize=14;startSize=8;endSize=8;" edge="1" parent="1">
          <mxGeometry relative="1" as="geometry">
            <mxPoint x="1426" y="540" as="sourcePoint" />
            <mxPoint x="1426" y="540" as="targetPoint" />
          </mxGeometry>
        </mxCell>
        <mxCell id="y5aqqQjo2jUjklV6V6uS-5" value="&lt;div&gt;Valid user found with creds found&lt;/div&gt;" style="rounded=1;whiteSpace=wrap;html=1;fontSize=14;fillColor=#60a917;strokeColor=#2D7600;fontColor=#ffffff;" vertex="1" parent="1">
          <mxGeometry x="1660" y="175" width="150" height="80" as="geometry" />
        </mxCell>
        <mxCell id="_KkYkDTvTRN3HUsftzkZ-1" style="edgeStyle=orthogonalEdgeStyle;rounded=0;orthogonalLoop=1;jettySize=auto;html=1;exitX=1;exitY=0.5;exitDx=0;exitDy=0;entryX=0.5;entryY=1;entryDx=0;entryDy=0;fontSize=13;fontColor=#0000aa;" edge="1" parent="1" source="y5aqqQjo2jUjklV6V6uS-13" target="y5aqqQjo2jUjklV6V6uS-5">
          <mxGeometry relative="1" as="geometry" />
        </mxCell>
        <mxCell id="y5aqqQjo2jUjklV6V6uS-13" value="Crack avec hashcat" style="whiteSpace=wrap;html=1;fontSize=14;rounded=1;" vertex="1" parent="1">
          <mxGeometry x="1441" y="330" width="120" height="60" as="geometry" />
        </mxCell>
        <mxCell id="y5aqqQjo2jUjklV6V6uS-16" value="&lt;div&gt;&lt;font color=&quot;#ffffff&quot;&gt;Find users AsRepRoastable&lt;/font&gt;&lt;/div&gt;&lt;div&gt;&lt;font color=&quot;#ffffff&quot;&gt;&lt;a href=&quot;https://github.com/SecureAuthCorp/impacket/blob/master/examples/GetNPUsers.py&quot;&gt;GetNPUsers.py&lt;/a&gt;&lt;br&gt;&lt;/font&gt;&lt;/div&gt;&lt;div&gt;&lt;font color=&quot;#ffffff&quot;&gt;&lt;br&gt;&lt;/font&gt;&lt;/div&gt;&lt;div&gt;&lt;font color=&quot;#dc8add&quot;&gt;Users qui ne nÃ©cÃ©ssite pas de prÃ©authentification pour demander un TGT&lt;/font&gt;&lt;/div&gt;" style="rounded=1;whiteSpace=wrap;html=1;fontSize=13;fontColor=#ffa348;" vertex="1" parent="1">
          <mxGeometry x="931" y="290" width="220" height="140" as="geometry" />
        </mxCell>
        <mxCell id="3KcXfi7NhkpAm5ZNJReR-4" value="" style="edgeStyle=none;rounded=0;orthogonalLoop=1;jettySize=auto;html=1;fontSize=13;fontColor=#dc8add;" edge="1" parent="1" source="3KcXfi7NhkpAm5ZNJReR-1" target="3KcXfi7NhkpAm5ZNJReR-3">
          <mxGeometry relative="1" as="geometry" />
        </mxCell>
        <mxCell id="3KcXfi7NhkpAm5ZNJReR-1" value="&lt;div&gt;Poisonning&lt;/div&gt;&lt;div&gt;&lt;font color=&quot;#0000aa&quot;&gt;Responder.py&lt;/font&gt;&lt;br&gt;&lt;/div&gt;" style="whiteSpace=wrap;html=1;fontSize=14;rounded=1;" vertex="1" parent="1">
          <mxGeometry x="370" y="450" width="120" height="60" as="geometry" />
        </mxCell>
        <mxCell id="3KcXfi7NhkpAm5ZNJReR-3" value="Hash found" style="whiteSpace=wrap;html=1;fontSize=14;rounded=1;" vertex="1" parent="1">
          <mxGeometry x="525" y="450" width="120" height="60" as="geometry" />
        </mxCell>
        <mxCell id="3KcXfi7NhkpAm5ZNJReR-9" style="rounded=0;orthogonalLoop=1;jettySize=auto;html=1;exitX=0.5;exitY=0;exitDx=0;exitDy=0;entryX=0.371;entryY=1.059;entryDx=0;entryDy=0;entryPerimeter=0;fontSize=13;fontColor=#dc8add;" edge="1" parent="1" source="3KcXfi7NhkpAm5ZNJReR-7" target="1S_cvOo1YeR9LOM_VgR6-3">
          <mxGeometry relative="1" as="geometry" />
        </mxCell>
        <mxCell id="3KcXfi7NhkpAm5ZNJReR-7" value="Crack avec hashcat" style="whiteSpace=wrap;html=1;fontSize=14;rounded=1;" vertex="1" parent="1">
          <mxGeometry x="660" y="450" width="120" height="60" as="geometry" />
        </mxCell>
      </root>
    </mxGraphModel>
  </diagram>
  <diagram name="from creds" id="U4GICPjlUHhETOjYcaq2">
    <mxGraphModel dx="2620" dy="956" grid="1" gridSize="10" guides="1" tooltips="1" connect="1" arrows="1" fold="1" page="1" pageScale="1" pageWidth="827" pageHeight="1169" math="0" shadow="0">
      <root>
        <mxCell id="0" />
        <mxCell id="1" parent="0" />
        <mxCell id="5y5mrsRL2AuuEaPEtIoS-18" style="edgeStyle=none;rounded=0;orthogonalLoop=1;jettySize=auto;html=1;exitX=1;exitY=0.5;exitDx=0;exitDy=0;entryX=0;entryY=0.5;entryDx=0;entryDy=0;fontSize=13;" parent="1" source="5y5mrsRL2AuuEaPEtIoS-3" target="5y5mrsRL2AuuEaPEtIoS-11" edge="1">
          <mxGeometry relative="1" as="geometry" />
        </mxCell>
        <mxCell id="5y5mrsRL2AuuEaPEtIoS-26" value="" style="edgeStyle=none;rounded=0;orthogonalLoop=1;jettySize=auto;html=1;entryX=0;entryY=0.5;entryDx=0;entryDy=0;fontSize=13;" parent="1" edge="1">
          <mxGeometry relative="1" as="geometry">
            <mxPoint x="-300" y="1070" as="sourcePoint" />
            <mxPoint x="-180" y="1260" as="targetPoint" />
          </mxGeometry>
        </mxCell>
        <mxCell id="5y5mrsRL2AuuEaPEtIoS-55" value="" style="edgeStyle=none;rounded=0;orthogonalLoop=1;jettySize=auto;html=1;exitX=1;exitY=0.5;exitDx=0;exitDy=0;fontSize=13;" parent="1" source="5y5mrsRL2AuuEaPEtIoS-3" target="5y5mrsRL2AuuEaPEtIoS-54" edge="1">
          <mxGeometry relative="1" as="geometry" />
        </mxCell>
        <mxCell id="5y5mrsRL2AuuEaPEtIoS-64" style="edgeStyle=none;rounded=0;orthogonalLoop=1;jettySize=auto;html=1;exitX=1;exitY=0.5;exitDx=0;exitDy=0;entryX=0;entryY=0.5;entryDx=0;entryDy=0;fontSize=13;" parent="1" source="5y5mrsRL2AuuEaPEtIoS-3" target="5y5mrsRL2AuuEaPEtIoS-63" edge="1">
          <mxGeometry relative="1" as="geometry" />
        </mxCell>
        <mxCell id="5y5mrsRL2AuuEaPEtIoS-3" value="Attaque" style="whiteSpace=wrap;html=1;rounded=1;fontSize=13;" parent="1" vertex="1">
          <mxGeometry x="-420" y="1040" width="120" height="60" as="geometry" />
        </mxCell>
        <mxCell id="5y5mrsRL2AuuEaPEtIoS-22" value="" style="edgeStyle=orthogonalEdgeStyle;rounded=0;orthogonalLoop=1;jettySize=auto;html=1;fontSize=13;entryX=0.5;entryY=0;entryDx=0;entryDy=0;" parent="1" source="5y5mrsRL2AuuEaPEtIoS-5" target="orcKsDgMiDMdKtN4nEvD-2" edge="1">
          <mxGeometry relative="1" as="geometry">
            <mxPoint x="-190" y="615.0000000000002" as="targetPoint" />
            <Array as="points">
              <mxPoint x="-340" y="440" />
              <mxPoint x="985" y="440" />
            </Array>
          </mxGeometry>
        </mxCell>
        <mxCell id="5y5mrsRL2AuuEaPEtIoS-5" value="&lt;div style=&quot;font-size: 13px;&quot;&gt;EnumÃ©ration des shares authentifiÃ©&lt;/div&gt;&lt;div style=&quot;font-size: 13px;&quot;&gt;&lt;br&gt;&lt;/div&gt;&lt;div style=&quot;font-size: 13px;&quot;&gt;&lt;font style=&quot;font-size: 13px;&quot; color=&quot;#2a7bde&quot;&gt;smbmap&lt;/font&gt;&lt;/div&gt;&lt;div style=&quot;font-size: 13px;&quot;&gt;&lt;font style=&quot;font-size: 13px;&quot; color=&quot;#2a7bde&quot;&gt;cme smb&lt;/font&gt;&lt;br style=&quot;font-size: 13px;&quot;&gt;&lt;/div&gt;" style="whiteSpace=wrap;html=1;rounded=1;fontSize=13;" parent="1" vertex="1">
          <mxGeometry x="-420" y="562.5" width="160" height="105" as="geometry" />
        </mxCell>
        <mxCell id="5y5mrsRL2AuuEaPEtIoS-20" value="" style="edgeStyle=none;rounded=0;orthogonalLoop=1;jettySize=auto;html=1;fontSize=13;entryX=0;entryY=0.5;entryDx=0;entryDy=0;" parent="1" source="5y5mrsRL2AuuEaPEtIoS-7" target="5y5mrsRL2AuuEaPEtIoS-27" edge="1">
          <mxGeometry relative="1" as="geometry">
            <mxPoint x="-190" y="770" as="targetPoint" />
          </mxGeometry>
        </mxCell>
        <mxCell id="5y5mrsRL2AuuEaPEtIoS-7" value="EnumÃ©ration AD&lt;br style=&quot;font-size: 13px;&quot;&gt;Bloodhound" style="whiteSpace=wrap;html=1;rounded=1;fontSize=13;" parent="1" vertex="1">
          <mxGeometry x="-413" y="730" width="120" height="60" as="geometry" />
        </mxCell>
        <mxCell id="5y5mrsRL2AuuEaPEtIoS-43" value="" style="edgeStyle=none;rounded=0;orthogonalLoop=1;jettySize=auto;html=1;fontSize=13;" parent="1" source="5y5mrsRL2AuuEaPEtIoS-11" target="5y5mrsRL2AuuEaPEtIoS-42" edge="1">
          <mxGeometry relative="1" as="geometry" />
        </mxCell>
        <mxCell id="5y5mrsRL2AuuEaPEtIoS-11" value="Relais SMB" style="rounded=1;whiteSpace=wrap;html=1;fontSize=13;" parent="1" vertex="1">
          <mxGeometry x="-180" y="900" width="120" height="60" as="geometry" />
        </mxCell>
        <mxCell id="5y5mrsRL2AuuEaPEtIoS-61" value="" style="edgeStyle=orthogonalEdgeStyle;rounded=0;orthogonalLoop=1;jettySize=auto;html=1;strokeColor=#000000;fontSize=13;" parent="1" edge="1">
          <mxGeometry relative="1" as="geometry">
            <mxPoint x="-60" y="1260" as="sourcePoint" />
            <mxPoint x="10" y="1260" as="targetPoint" />
          </mxGeometry>
        </mxCell>
        <mxCell id="5y5mrsRL2AuuEaPEtIoS-27" value="&lt;div&gt;Kerberoasting&lt;/div&gt;&lt;div&gt;&lt;font color=&quot;#2a7bde&quot;&gt;rubeu.py&lt;/font&gt;&lt;/div&gt;&lt;div&gt;&lt;font color=&quot;#2a7bde&quot;&gt;&lt;br&gt;&lt;/font&gt;&lt;/div&gt;&lt;div&gt;&lt;font color=&quot;#2a7bde&quot;&gt;&lt;font color=&quot;#dc8add&quot;&gt;Get hash of services accounts&lt;/font&gt;&lt;br&gt;&lt;/font&gt;&lt;/div&gt;" style="whiteSpace=wrap;html=1;rounded=1;fontSize=13;" parent="1" vertex="1">
          <mxGeometry x="-130" y="640" width="170" height="110" as="geometry" />
        </mxCell>
        <mxCell id="5y5mrsRL2AuuEaPEtIoS-36" value="" style="edgeStyle=none;rounded=0;orthogonalLoop=1;jettySize=auto;html=1;entryX=0;entryY=0.5;entryDx=0;entryDy=0;exitX=1;exitY=0.5;exitDx=0;exitDy=0;fontSize=13;" parent="1" source="5y5mrsRL2AuuEaPEtIoS-33" target="5y5mrsRL2AuuEaPEtIoS-35" edge="1">
          <mxGeometry relative="1" as="geometry" />
        </mxCell>
        <mxCell id="5y5mrsRL2AuuEaPEtIoS-41" value="" style="edgeStyle=none;rounded=0;orthogonalLoop=1;jettySize=auto;html=1;fontSize=13;" parent="1" source="5y5mrsRL2AuuEaPEtIoS-33" target="5y5mrsRL2AuuEaPEtIoS-40" edge="1">
          <mxGeometry relative="1" as="geometry" />
        </mxCell>
        <mxCell id="5y5mrsRL2AuuEaPEtIoS-33" value="Reconnaissance du rÃ©seau" style="whiteSpace=wrap;html=1;rounded=1;fontSize=13;" parent="1" vertex="1">
          <mxGeometry x="-110" y="330" width="120" height="60" as="geometry" />
        </mxCell>
        <mxCell id="5y5mrsRL2AuuEaPEtIoS-38" value="" style="edgeStyle=none;rounded=0;orthogonalLoop=1;jettySize=auto;html=1;fontSize=13;" parent="1" source="5y5mrsRL2AuuEaPEtIoS-35" target="5y5mrsRL2AuuEaPEtIoS-37" edge="1">
          <mxGeometry relative="1" as="geometry" />
        </mxCell>
        <mxCell id="5y5mrsRL2AuuEaPEtIoS-35" value="Controleurs de domaines" style="whiteSpace=wrap;html=1;rounded=1;fontSize=13;" parent="1" vertex="1">
          <mxGeometry x="40" y="240" width="120" height="60" as="geometry" />
        </mxCell>
        <mxCell id="5y5mrsRL2AuuEaPEtIoS-37" value="via DNS" style="whiteSpace=wrap;html=1;rounded=1;fontSize=13;" parent="1" vertex="1">
          <mxGeometry x="190" y="230" width="120" height="60" as="geometry" />
        </mxCell>
        <mxCell id="5y5mrsRL2AuuEaPEtIoS-40" value="Scan Nmap du rÃ©seau" style="whiteSpace=wrap;html=1;rounded=1;fontSize=13;" parent="1" vertex="1">
          <mxGeometry x="70" y="320" width="120" height="60" as="geometry" />
        </mxCell>
        <mxCell id="5y5mrsRL2AuuEaPEtIoS-45" style="edgeStyle=none;rounded=0;orthogonalLoop=1;jettySize=auto;html=1;exitX=1;exitY=0.5;exitDx=0;exitDy=0;fontSize=13;" parent="1" source="5y5mrsRL2AuuEaPEtIoS-42" target="5y5mrsRL2AuuEaPEtIoS-44" edge="1">
          <mxGeometry relative="1" as="geometry" />
        </mxCell>
        <mxCell id="5y5mrsRL2AuuEaPEtIoS-42" value="inscription au service d&#39;inscription web ADCS" style="whiteSpace=wrap;html=1;rounded=1;fontSize=13;" parent="1" vertex="1">
          <mxGeometry x="-14" y="900" width="120" height="60" as="geometry" />
        </mxCell>
        <mxCell id="5y5mrsRL2AuuEaPEtIoS-47" value="" style="edgeStyle=none;rounded=0;orthogonalLoop=1;jettySize=auto;html=1;fontSize=13;" parent="1" source="5y5mrsRL2AuuEaPEtIoS-44" target="5y5mrsRL2AuuEaPEtIoS-46" edge="1">
          <mxGeometry relative="1" as="geometry" />
        </mxCell>
        <mxCell id="5y5mrsRL2AuuEaPEtIoS-44" value="RÃ©cupÃ©ration d&#39;un certificat" style="whiteSpace=wrap;html=1;rounded=1;fontSize=13;" parent="1" vertex="1">
          <mxGeometry x="150" y="900" width="120" height="60" as="geometry" />
        </mxCell>
        <mxCell id="5y5mrsRL2AuuEaPEtIoS-49" value="" style="edgeStyle=none;rounded=0;orthogonalLoop=1;jettySize=auto;html=1;fontSize=13;" parent="1" source="5y5mrsRL2AuuEaPEtIoS-46" target="5y5mrsRL2AuuEaPEtIoS-48" edge="1">
          <mxGeometry relative="1" as="geometry" />
        </mxCell>
        <mxCell id="5y5mrsRL2AuuEaPEtIoS-46" value="&lt;div style=&quot;font-size: 13px;&quot;&gt;on rÃ©cupÃ¨re un ticket kerberos TGT&lt;/div&gt;&lt;div style=&quot;font-size: 13px;&quot;&gt;&lt;br style=&quot;font-size: 13px;&quot;&gt;&lt;/div&gt;&lt;div style=&quot;font-size: 13px;&quot;&gt;gettgtpkinit.py&lt;/div&gt;" style="whiteSpace=wrap;html=1;rounded=1;fontSize=13;" parent="1" vertex="1">
          <mxGeometry x="320" y="900" width="120" height="60" as="geometry" />
        </mxCell>
        <mxCell id="5y5mrsRL2AuuEaPEtIoS-48" value="&lt;div style=&quot;font-size: 13px;&quot;&gt;RÃ©cupÃ©ration du NT hash&lt;/div&gt;&lt;div style=&quot;font-size: 13px;&quot;&gt;&lt;br style=&quot;font-size: 13px;&quot;&gt;&lt;/div&gt;&lt;div style=&quot;font-size: 13px;&quot;&gt;getnthash.py&lt;br style=&quot;font-size: 13px;&quot;&gt;&lt;/div&gt;" style="whiteSpace=wrap;html=1;rounded=1;fontSize=13;" parent="1" vertex="1">
          <mxGeometry x="520" y="900" width="120" height="60" as="geometry" />
        </mxCell>
        <mxCell id="5y5mrsRL2AuuEaPEtIoS-58" value="" style="edgeStyle=orthogonalEdgeStyle;rounded=0;orthogonalLoop=1;jettySize=auto;html=1;entryX=0;entryY=0.5;entryDx=0;entryDy=0;strokeColor=#FF3333;fontSize=13;" parent="1" source="5y5mrsRL2AuuEaPEtIoS-52" target="5y5mrsRL2AuuEaPEtIoS-11" edge="1">
          <mxGeometry relative="1" as="geometry">
            <mxPoint x="160" y="1010" as="targetPoint" />
            <Array as="points">
              <mxPoint x="46" y="990" />
              <mxPoint x="-280" y="990" />
              <mxPoint x="-280" y="930" />
            </Array>
          </mxGeometry>
        </mxCell>
        <mxCell id="5y5mrsRL2AuuEaPEtIoS-52" value="coercer.py" style="whiteSpace=wrap;html=1;rounded=1;fontSize=13;" parent="1" vertex="1">
          <mxGeometry x="-14" y="1000" width="120" height="60" as="geometry" />
        </mxCell>
        <mxCell id="5y5mrsRL2AuuEaPEtIoS-59" style="edgeStyle=orthogonalEdgeStyle;rounded=0;orthogonalLoop=1;jettySize=auto;html=1;exitX=1;exitY=0.5;exitDx=0;exitDy=0;entryX=0;entryY=0.5;entryDx=0;entryDy=0;strokeColor=#000000;fontSize=13;" parent="1" source="5y5mrsRL2AuuEaPEtIoS-54" target="5y5mrsRL2AuuEaPEtIoS-52" edge="1">
          <mxGeometry relative="1" as="geometry" />
        </mxCell>
        <mxCell id="5y5mrsRL2AuuEaPEtIoS-54" value="on force un DC Ã  se connecter Ã  nous" style="whiteSpace=wrap;html=1;rounded=1;fontSize=13;" parent="1" vertex="1">
          <mxGeometry x="-200" y="1000" width="120" height="60" as="geometry" />
        </mxCell>
        <mxCell id="5y5mrsRL2AuuEaPEtIoS-63" value="shadow admin" style="rounded=1;whiteSpace=wrap;html=1;fontSize=13;" parent="1" vertex="1">
          <mxGeometry x="-180" y="1100" width="120" height="60" as="geometry" />
        </mxCell>
        <mxCell id="o2TW2BTDyTJAUZRltqvO-1" style="edgeStyle=orthogonalEdgeStyle;rounded=0;orthogonalLoop=1;jettySize=auto;html=1;exitX=1;exitY=0.5;exitDx=0;exitDy=0;entryX=0;entryY=0.5;entryDx=0;entryDy=0;fontSize=13;fontColor=#0000aa;" edge="1" parent="1" source="orcKsDgMiDMdKtN4nEvD-1" target="5y5mrsRL2AuuEaPEtIoS-5">
          <mxGeometry relative="1" as="geometry" />
        </mxCell>
        <mxCell id="o2TW2BTDyTJAUZRltqvO-4" style="edgeStyle=none;rounded=0;orthogonalLoop=1;jettySize=auto;html=1;exitX=1;exitY=0.5;exitDx=0;exitDy=0;entryX=0;entryY=0.5;entryDx=0;entryDy=0;fontSize=13;fontColor=#2a7bde;" edge="1" parent="1" source="orcKsDgMiDMdKtN4nEvD-1" target="5y5mrsRL2AuuEaPEtIoS-7">
          <mxGeometry relative="1" as="geometry" />
        </mxCell>
        <mxCell id="orcKsDgMiDMdKtN4nEvD-1" value="&lt;div style=&quot;font-size: 13px;&quot;&gt;Valid account on the domain&lt;/div&gt;" style="rounded=1;whiteSpace=wrap;html=1;fontSize=13;fillColor=#e51400;strokeColor=#B20000;fontColor=#ffffff;" vertex="1" parent="1">
          <mxGeometry x="-680" y="575" width="150" height="80" as="geometry" />
        </mxCell>
        <mxCell id="orcKsDgMiDMdKtN4nEvD-2" value="Admin right" style="rounded=1;whiteSpace=wrap;html=1;fontSize=13;fillColor=#60a917;strokeColor=#2D7600;fontColor=#ffffff;" vertex="1" parent="1">
          <mxGeometry x="910" y="545" width="150" height="80" as="geometry" />
        </mxCell>
      </root>
    </mxGraphModel>
  </diagram>
  <diagram id="oTci8SejxHdYvOjTQ01X" name="Bonnes pratiques">
    <mxGraphModel dx="2261" dy="-354" grid="1" gridSize="10" guides="1" tooltips="1" connect="1" arrows="1" fold="1" page="1" pageScale="1" pageWidth="827" pageHeight="1169" math="0" shadow="0">
      <root>
        <mxCell id="0" />
        <mxCell id="1" parent="0" />
        <mxCell id="oVyD5hO7Ps2CTn3XRuPj-1" value="" style="edgeStyle=none;rounded=0;orthogonalLoop=1;jettySize=auto;html=1;strokeColor=#000000;" parent="1" source="oVyD5hO7Ps2CTn3XRuPj-11" target="oVyD5hO7Ps2CTn3XRuPj-12" edge="1">
          <mxGeometry relative="1" as="geometry" />
        </mxCell>
        <mxCell id="oVyD5hO7Ps2CTn3XRuPj-2" value="" style="edgeStyle=none;rounded=0;orthogonalLoop=1;jettySize=auto;html=1;strokeColor=#000000;" parent="1" source="oVyD5hO7Ps2CTn3XRuPj-11" target="oVyD5hO7Ps2CTn3XRuPj-13" edge="1">
          <mxGeometry relative="1" as="geometry" />
        </mxCell>
        <mxCell id="oVyD5hO7Ps2CTn3XRuPj-3" value="" style="edgeStyle=none;rounded=0;orthogonalLoop=1;jettySize=auto;html=1;strokeColor=#000000;" parent="1" source="oVyD5hO7Ps2CTn3XRuPj-11" target="oVyD5hO7Ps2CTn3XRuPj-14" edge="1">
          <mxGeometry relative="1" as="geometry" />
        </mxCell>
        <mxCell id="oVyD5hO7Ps2CTn3XRuPj-4" value="" style="edgeStyle=none;rounded=0;orthogonalLoop=1;jettySize=auto;html=1;strokeColor=#000000;" parent="1" source="oVyD5hO7Ps2CTn3XRuPj-11" target="oVyD5hO7Ps2CTn3XRuPj-15" edge="1">
          <mxGeometry relative="1" as="geometry" />
        </mxCell>
        <mxCell id="oVyD5hO7Ps2CTn3XRuPj-5" value="" style="edgeStyle=none;rounded=0;orthogonalLoop=1;jettySize=auto;html=1;strokeColor=#000000;" parent="1" source="oVyD5hO7Ps2CTn3XRuPj-11" target="oVyD5hO7Ps2CTn3XRuPj-16" edge="1">
          <mxGeometry relative="1" as="geometry" />
        </mxCell>
        <mxCell id="oVyD5hO7Ps2CTn3XRuPj-6" value="" style="edgeStyle=none;rounded=0;orthogonalLoop=1;jettySize=auto;html=1;strokeColor=#000000;fontSize=12;" parent="1" source="oVyD5hO7Ps2CTn3XRuPj-11" target="oVyD5hO7Ps2CTn3XRuPj-17" edge="1">
          <mxGeometry relative="1" as="geometry" />
        </mxCell>
        <mxCell id="oVyD5hO7Ps2CTn3XRuPj-7" value="" style="edgeStyle=none;rounded=0;orthogonalLoop=1;jettySize=auto;html=1;strokeColor=#000000;fontSize=11;" parent="1" source="oVyD5hO7Ps2CTn3XRuPj-21" target="oVyD5hO7Ps2CTn3XRuPj-18" edge="1">
          <mxGeometry relative="1" as="geometry" />
        </mxCell>
        <mxCell id="oVyD5hO7Ps2CTn3XRuPj-8" value="" style="edgeStyle=none;rounded=0;orthogonalLoop=1;jettySize=auto;html=1;strokeColor=#000000;fontSize=12;exitX=1.008;exitY=0.383;exitDx=0;exitDy=0;exitPerimeter=0;" parent="1" source="oVyD5hO7Ps2CTn3XRuPj-21" target="oVyD5hO7Ps2CTn3XRuPj-19" edge="1">
          <mxGeometry relative="1" as="geometry" />
        </mxCell>
        <mxCell id="oVyD5hO7Ps2CTn3XRuPj-9" value="" style="edgeStyle=none;rounded=0;orthogonalLoop=1;jettySize=auto;html=1;strokeColor=#000000;fontSize=12;exitX=1;exitY=0.5;exitDx=0;exitDy=0;" parent="1" source="oVyD5hO7Ps2CTn3XRuPj-21" target="oVyD5hO7Ps2CTn3XRuPj-20" edge="1">
          <mxGeometry relative="1" as="geometry">
            <mxPoint x="220" y="1391" as="sourcePoint" />
          </mxGeometry>
        </mxCell>
        <mxCell id="oVyD5hO7Ps2CTn3XRuPj-10" value="" style="edgeStyle=none;rounded=0;orthogonalLoop=1;jettySize=auto;html=1;strokeColor=#000000;fontSize=12;" parent="1" source="oVyD5hO7Ps2CTn3XRuPj-11" target="oVyD5hO7Ps2CTn3XRuPj-21" edge="1">
          <mxGeometry relative="1" as="geometry" />
        </mxCell>
        <mxCell id="oVyD5hO7Ps2CTn3XRuPj-11" value="Mauvaises pratiques AD" style="rounded=1;whiteSpace=wrap;html=1;" parent="1" vertex="1">
          <mxGeometry x="-170" y="1361" width="120" height="60" as="geometry" />
        </mxCell>
        <mxCell id="oVyD5hO7Ps2CTn3XRuPj-12" value="Mauvaise gestion des droits sur les dossiers paratgÃ©s" style="whiteSpace=wrap;html=1;rounded=1;" parent="1" vertex="1">
          <mxGeometry x="20" y="1250" width="120" height="60" as="geometry" />
        </mxCell>
        <mxCell id="oVyD5hO7Ps2CTn3XRuPj-13" value="SMBv1 activÃ©" style="whiteSpace=wrap;html=1;rounded=1;" parent="1" vertex="1">
          <mxGeometry x="30" y="1691" width="120" height="60" as="geometry" />
        </mxCell>
        <mxCell id="oVyD5hO7Ps2CTn3XRuPj-14" value="&lt;span style=&quot;background-color: transparent;&quot;&gt;&lt;font style=&quot;font-size: 11px;&quot;&gt;&lt;span style=&quot;margin: 0px; padding: 0px; user-select: text; font-variant-ligatures: none !important; font-style: normal; font-variant-caps: normal; font-weight: 400; letter-spacing: normal; text-align: left; text-indent: 0px; text-transform: none; word-spacing: 0px; -webkit-text-stroke-width: 0px; text-decoration-style: initial; text-decoration-color: initial; line-height: 15.4px; font-family: Verdana, Verdana_EmbeddedFont, Verdana_MSFontService, sans-serif;&quot; class=&quot;TextRun SCXW149403419 BCX7&quot; data-contrast=&quot;none&quot; lang=&quot;FR-FR&quot;&gt;&lt;/span&gt;&lt;/font&gt;&lt;/span&gt; &lt;span style=&quot;background-color: transparent;&quot;&gt;&lt;font style=&quot;font-size: 11px;&quot;&gt;&lt;span style=&quot;margin: 0px; padding: 0px; user-select: text; font-variant-ligatures: none !important; font-style: normal; font-variant-caps: normal; font-weight: 400; letter-spacing: normal; text-align: left; text-indent: 0px; text-transform: none; word-spacing: 0px; -webkit-text-stroke-width: 0px; text-decoration-style: initial; text-decoration-color: initial; line-height: 15.4px; font-family: Verdana, Verdana_EmbeddedFont, Verdana_MSFontService, sans-serif;&quot; class=&quot;TextRun SCXW149403419 BCX7&quot; data-contrast=&quot;none&quot; lang=&quot;FR-FR&quot;&gt;&lt;span style=&quot;margin: 0px; padding: 0px; user-select: text; -webkit-user-drag: none; -webkit-tap-highlight-color: transparent;&quot; class=&quot;NormalTextRun SCXW149403419 BCX7&quot;&gt;SystÃ¨me d&#39;exploitation obsolÃ¨te&lt;/span&gt;&lt;/span&gt;&lt;span style=&quot;margin: 0px; padding: 0px; user-select: text; font-style: normal; font-variant-ligatures: normal; font-variant-caps: normal; font-weight: 400; letter-spacing: normal; text-align: left; text-indent: 0px; text-transform: none; word-spacing: 0px; -webkit-text-stroke-width: 0px; text-decoration-style: initial; text-decoration-color: initial; line-height: 15.4px; font-family: Verdana, Verdana_EmbeddedFont, Verdana_MSFontService, sans-serif;&quot; data-ccp-props=&quot;{&amp;quot;201341983&amp;quot;:0,&amp;quot;335559739&amp;quot;:120,&amp;quot;335559740&amp;quot;:264}&quot; class=&quot;EOP SCXW149403419 BCX7&quot;&gt;&amp;nbsp;&lt;/span&gt;&lt;/font&gt;&lt;/span&gt;" style="whiteSpace=wrap;html=1;rounded=1;" parent="1" vertex="1">
          <mxGeometry x="30" y="1611" width="120" height="70" as="geometry" />
        </mxCell>
        <mxCell id="oVyD5hO7Ps2CTn3XRuPj-15" value="&lt;span style=&quot;background-color: transparent;&quot;&gt;&lt;font style=&quot;font-size: 12px;&quot;&gt;&lt;span style=&quot;margin: 0px; padding: 0px; user-select: text; font-variant-ligatures: none !important; font-style: normal; font-variant-caps: normal; font-weight: 400; letter-spacing: normal; text-align: left; text-indent: 0px; text-transform: none; word-spacing: 0px; -webkit-text-stroke-width: 0px; text-decoration-style: initial; text-decoration-color: initial; line-height: 15.4px; font-family: Verdana, Verdana_EmbeddedFont, Verdana_MSFontService, sans-serif;&quot; class=&quot;TextRun SCXW23299233 BCX7&quot; data-contrast=&quot;none&quot; lang=&quot;FR-FR&quot;&gt;&lt;span style=&quot;margin: 0px; padding: 0px; user-select: text; -webkit-user-drag: none; -webkit-tap-highlight-color: transparent;&quot; class=&quot;NormalTextRun SCXW23299233 BCX7&quot;&gt;Administrateur local &lt;/span&gt;&lt;span style=&quot;margin: 0px; padding: 0px; user-select: text; -webkit-user-drag: none; -webkit-tap-highlight-color: transparent;&quot; class=&quot;NormalTextRun SCXW23299233 BCX7&quot;&gt;rÃ©pliquÃ©&lt;/span&gt;&lt;/span&gt;&lt;span style=&quot;margin: 0px; padding: 0px; user-select: text; font-style: normal; font-variant-ligatures: normal; font-variant-caps: normal; font-weight: 400; letter-spacing: normal; text-align: left; text-indent: 0px; text-transform: none; word-spacing: 0px; -webkit-text-stroke-width: 0px; text-decoration-style: initial; text-decoration-color: initial; line-height: 15.4px; font-family: Verdana, Verdana_EmbeddedFont, Verdana_MSFontService, sans-serif;&quot; data-ccp-props=&quot;{&amp;quot;201341983&amp;quot;:0,&amp;quot;335559739&amp;quot;:120,&amp;quot;335559740&amp;quot;:264}&quot; class=&quot;EOP SCXW23299233 BCX7&quot;&gt;&amp;nbsp;&lt;/span&gt;&lt;/font&gt;&lt;/span&gt;" style="whiteSpace=wrap;html=1;rounded=1;" parent="1" vertex="1">
          <mxGeometry x="20" y="1531" width="120" height="60" as="geometry" />
        </mxCell>
        <mxCell id="oVyD5hO7Ps2CTn3XRuPj-16" value="&lt;span style=&quot;background-color: transparent;&quot;&gt;&lt;font style=&quot;font-size: 12px;&quot;&gt;&lt;span style=&quot;margin: 0px; padding: 0px; user-select: text; font-variant-ligatures: none !important; font-style: normal; font-variant-caps: normal; font-weight: 400; letter-spacing: normal; text-align: left; text-indent: 0px; text-transform: none; word-spacing: 0px; -webkit-text-stroke-width: 0px; text-decoration-style: initial; text-decoration-color: initial; line-height: 15.4px; font-family: Verdana, Verdana_EmbeddedFont, Verdana_MSFontService, sans-serif;&quot; class=&quot;TextRun SCXW219254128 BCX7&quot; data-contrast=&quot;none&quot; lang=&quot;FR-FR&quot;&gt;&lt;/span&gt;&lt;/font&gt;&lt;/span&gt; &lt;span style=&quot;background-color: transparent;&quot;&gt;&lt;font style=&quot;font-size: 12px;&quot;&gt;&lt;span style=&quot;margin: 0px; padding: 0px; user-select: text; font-variant-ligatures: none !important; font-style: normal; font-variant-caps: normal; font-weight: 400; letter-spacing: normal; text-align: left; text-indent: 0px; text-transform: none; word-spacing: 0px; -webkit-text-stroke-width: 0px; text-decoration-style: initial; text-decoration-color: initial; line-height: 15.4px; font-family: Verdana, Verdana_EmbeddedFont, Verdana_MSFontService, sans-serif;&quot; class=&quot;TextRun SCXW219254128 BCX7&quot; data-contrast=&quot;none&quot; lang=&quot;FR-FR&quot;&gt;&lt;span style=&quot;margin: 0px; padding: 0px; user-select: text; -webkit-user-drag: none; -webkit-tap-highlight-color: transparent;&quot; class=&quot;NormalTextRun SCXW219254128 BCX7&quot;&gt;Signature SMB non requise&lt;/span&gt;&lt;/span&gt;&lt;span style=&quot;margin: 0px; padding: 0px; user-select: text; font-style: normal; font-variant-ligatures: normal; font-variant-caps: normal; font-weight: 400; letter-spacing: normal; text-align: left; text-indent: 0px; text-transform: none; word-spacing: 0px; -webkit-text-stroke-width: 0px; text-decoration-style: initial; text-decoration-color: initial; line-height: 15.4px; font-family: Verdana, Verdana_EmbeddedFont, Verdana_MSFontService, sans-serif;&quot; data-ccp-props=&quot;{&amp;quot;201341983&amp;quot;:0,&amp;quot;335559739&amp;quot;:120,&amp;quot;335559740&amp;quot;:264}&quot; class=&quot;EOP SCXW219254128 BCX7&quot;&gt;&amp;nbsp;&lt;/span&gt;&lt;/font&gt;&lt;/span&gt;" style="whiteSpace=wrap;html=1;rounded=1;" parent="1" vertex="1">
          <mxGeometry x="20" y="1461" width="120" height="60" as="geometry" />
        </mxCell>
        <mxCell id="oVyD5hO7Ps2CTn3XRuPj-17" value="&lt;span style=&quot;background-color: transparent;&quot;&gt;&lt;font style=&quot;font-size: 11px;&quot;&gt;&lt;span style=&quot;margin: 0px; padding: 0px; user-select: text; font-variant-ligatures: none !important; font-style: normal; font-variant-caps: normal; font-weight: 400; letter-spacing: normal; text-align: left; text-indent: 0px; text-transform: none; word-spacing: 0px; -webkit-text-stroke-width: 0px; text-decoration-style: initial; text-decoration-color: initial; line-height: 15.4px; font-family: Verdana, Verdana_EmbeddedFont, Verdana_MSFontService, sans-serif;&quot; class=&quot;TextRun SCXW238315089 BCX7&quot; data-contrast=&quot;none&quot; lang=&quot;FR-FR&quot;&gt;&lt;/span&gt;&lt;/font&gt;&lt;/span&gt; &lt;span style=&quot;background-color: transparent;&quot;&gt;&lt;font style=&quot;font-size: 11px;&quot;&gt;&lt;span style=&quot;margin: 0px; padding: 0px; user-select: text; font-variant-ligatures: none !important; font-style: normal; font-variant-caps: normal; font-weight: 400; letter-spacing: normal; text-align: left; text-indent: 0px; text-transform: none; word-spacing: 0px; -webkit-text-stroke-width: 0px; text-decoration-style: initial; text-decoration-color: initial; line-height: 15.4px; font-family: Verdana, Verdana_EmbeddedFont, Verdana_MSFontService, sans-serif;&quot; class=&quot;TextRun SCXW238315089 BCX7&quot; data-contrast=&quot;none&quot; lang=&quot;FR-FR&quot;&gt;&lt;span style=&quot;margin: 0px; padding: 0px; user-select: text; -webkit-user-drag: none; -webkit-tap-highlight-color: transparent;&quot; class=&quot;NormalTextRun SCXW238315089 BCX7&quot;&gt;Information d&#39;authentification en claires dans un fichier&lt;/span&gt;&lt;/span&gt;&lt;span style=&quot;margin: 0px; padding: 0px; user-select: text; font-style: normal; font-variant-ligatures: normal; font-variant-caps: normal; font-weight: 400; letter-spacing: normal; text-align: left; text-indent: 0px; text-transform: none; word-spacing: 0px; -webkit-text-stroke-width: 0px; text-decoration-style: initial; text-decoration-color: initial; line-height: 15.4px; font-family: Verdana, Verdana_EmbeddedFont, Verdana_MSFontService, sans-serif;&quot; data-ccp-props=&quot;{&amp;quot;201341983&amp;quot;:0,&amp;quot;335559739&amp;quot;:120,&amp;quot;335559740&amp;quot;:264}&quot; class=&quot;EOP SCXW238315089 BCX7&quot;&gt;&amp;nbsp;&lt;/span&gt;&lt;/font&gt;&lt;/span&gt;" style="whiteSpace=wrap;html=1;rounded=1;" parent="1" vertex="1">
          <mxGeometry x="30" y="1761" width="120" height="60" as="geometry" />
        </mxCell>
        <mxCell id="oVyD5hO7Ps2CTn3XRuPj-18" value="AnciennetÃ© Mot de passe &amp;gt; 1 an" style="whiteSpace=wrap;html=1;rounded=1;" parent="1" vertex="1">
          <mxGeometry x="440" y="1431" width="120" height="60" as="geometry" />
        </mxCell>
        <mxCell id="oVyD5hO7Ps2CTn3XRuPj-19" value="&lt;font style=&quot;font-size: 12px;&quot;&gt;&lt;span style=&quot;margin: 0px; padding: 0px; user-select: text; font-variant-ligatures: none !important; font-style: normal; font-variant-caps: normal; font-weight: 400; letter-spacing: normal; text-align: left; text-indent: 0px; text-transform: none; word-spacing: 0px; -webkit-text-stroke-width: 0px; background-color: rgb(255, 255, 255); text-decoration-style: initial; text-decoration-color: initial; color: rgb(0, 0, 0); line-height: 15.4px; font-family: Verdana, Verdana_EmbeddedFont, Verdana_MSFontService, sans-serif;&quot; class=&quot;TextRun SCXW12427834 BCX7&quot; data-contrast=&quot;none&quot; lang=&quot;FR-FR&quot;&gt;&lt;span style=&quot;margin: 0px; padding: 0px; user-select: text; -webkit-user-drag: none; -webkit-tap-highlight-color: transparent;&quot; class=&quot;NormalTextRun SCXW12427834 BCX7&quot;&gt;Politique de mot de passe faible&lt;/span&gt;&lt;/span&gt;&lt;span style=&quot;margin: 0px; padding: 0px; user-select: text; font-style: normal; font-variant-ligatures: normal; font-variant-caps: normal; font-weight: 400; letter-spacing: normal; text-align: left; text-indent: 0px; text-transform: none; word-spacing: 0px; -webkit-text-stroke-width: 0px; background-color: rgb(255, 255, 255); text-decoration-style: initial; text-decoration-color: initial; line-height: 15.4px; font-family: Verdana, Verdana_EmbeddedFont, Verdana_MSFontService, sans-serif; color: rgb(0, 0, 0);&quot; data-ccp-props=&quot;{&amp;quot;201341983&amp;quot;:0,&amp;quot;335559739&amp;quot;:120,&amp;quot;335559740&amp;quot;:264}&quot; class=&quot;EOP SCXW12427834 BCX7&quot;&gt;&amp;nbsp;&lt;/span&gt;&lt;/font&gt;" style="whiteSpace=wrap;html=1;rounded=1;" parent="1" vertex="1">
          <mxGeometry x="440" y="1291" width="120" height="60" as="geometry" />
        </mxCell>
        <mxCell id="oVyD5hO7Ps2CTn3XRuPj-20" value="&lt;font style=&quot;font-size: 12px;&quot;&gt;&lt;span style=&quot;margin: 0px; padding: 0px; user-select: text; font-variant-ligatures: none !important; font-style: normal; font-variant-caps: normal; font-weight: 400; letter-spacing: normal; text-align: left; text-indent: 0px; text-transform: none; word-spacing: 0px; -webkit-text-stroke-width: 0px; background-color: rgb(255, 255, 255); text-decoration-style: initial; text-decoration-color: initial; color: rgb(0, 0, 0); line-height: 15.4px; font-family: Verdana, Verdana_EmbeddedFont, Verdana_MSFontService, sans-serif;&quot; class=&quot;TextRun SCXW98094209 BCX7&quot; data-contrast=&quot;none&quot; lang=&quot;FR-FR&quot;&gt;&lt;/span&gt;&lt;/font&gt; &lt;font style=&quot;font-size: 12px;&quot;&gt;&lt;span style=&quot;margin: 0px; padding: 0px; user-select: text; font-variant-ligatures: none !important; font-style: normal; font-variant-caps: normal; font-weight: 400; letter-spacing: normal; text-align: left; text-indent: 0px; text-transform: none; word-spacing: 0px; -webkit-text-stroke-width: 0px; background-color: rgb(255, 255, 255); text-decoration-style: initial; text-decoration-color: initial; color: rgb(0, 0, 0); line-height: 15.4px; font-family: Verdana, Verdana_EmbeddedFont, Verdana_MSFontService, sans-serif;&quot; class=&quot;TextRun SCXW98094209 BCX7&quot; data-contrast=&quot;none&quot; lang=&quot;FR-FR&quot;&gt;&lt;span style=&quot;margin: 0px; padding: 0px; user-select: text; -webkit-user-drag: none; -webkit-tap-highlight-color: transparent;&quot; class=&quot;NormalTextRun SCXW98094209 BCX7&quot;&gt;Mot de passe sans date d&#39;expiration&lt;/span&gt;&lt;/span&gt;&lt;span style=&quot;margin: 0px; padding: 0px; user-select: text; font-style: normal; font-variant-ligatures: normal; font-variant-caps: normal; font-weight: 400; letter-spacing: normal; text-align: left; text-indent: 0px; text-transform: none; word-spacing: 0px; -webkit-text-stroke-width: 0px; background-color: rgb(255, 255, 255); text-decoration-style: initial; text-decoration-color: initial; line-height: 15.4px; font-family: Verdana, Verdana_EmbeddedFont, Verdana_MSFontService, sans-serif; color: rgb(0, 0, 0);&quot; data-ccp-props=&quot;{&amp;quot;201341983&amp;quot;:0,&amp;quot;335559739&amp;quot;:120,&amp;quot;335559740&amp;quot;:264}&quot; class=&quot;EOP SCXW98094209 BCX7&quot;&gt;&amp;nbsp;&lt;/span&gt;&lt;/font&gt;" style="whiteSpace=wrap;html=1;rounded=1;" parent="1" vertex="1">
          <mxGeometry x="440" y="1361" width="120" height="60" as="geometry" />
        </mxCell>
        <mxCell id="oVyD5hO7Ps2CTn3XRuPj-21" value="Mot de passe" style="whiteSpace=wrap;html=1;rounded=1;" parent="1" vertex="1">
          <mxGeometry x="40" y="1351" width="120" height="60" as="geometry" />
        </mxCell>
      </root>
    </mxGraphModel>
  </diagram>
</mxfile>
